<mxfile host="app.diagrams.net" modified="2023-06-28T10:39:33.080Z" agent="Mozilla/5.0 (Macintosh; Intel Mac OS X 10_15_7) AppleWebKit/537.36 (KHTML, like Gecko) Chrome/114.0.0.0 Safari/537.36" etag="ch2VFpYzgVWysfdJ30wW" version="21.5.1" type="github">
  <diagram name="第 1 页" id="jm9fUSzly1rMszymVyXr">
    <mxGraphModel dx="954" dy="458" grid="1" gridSize="10" guides="1" tooltips="1" connect="1" arrows="1" fold="1" page="1" pageScale="1" pageWidth="827" pageHeight="1169" math="0" shadow="0">
      <root>
        <mxCell id="0" />
        <mxCell id="1" parent="0" />
        <mxCell id="D6nJB5GCNbMDv5XUoxk--1" value="" style="rounded=0;whiteSpace=wrap;html=1;" vertex="1" parent="1">
          <mxGeometry x="460" y="190" width="240" height="260" as="geometry" />
        </mxCell>
        <mxCell id="D6nJB5GCNbMDv5XUoxk--2" value="Actor" style="shape=umlActor;verticalLabelPosition=bottom;verticalAlign=top;html=1;outlineConnect=0;" vertex="1" parent="1">
          <mxGeometry x="380" y="270" width="30" height="60" as="geometry" />
        </mxCell>
        <mxCell id="D6nJB5GCNbMDv5XUoxk--3" value="权限管理" style="text;strokeColor=none;align=center;fillColor=none;html=1;verticalAlign=middle;whiteSpace=wrap;rounded=0;" vertex="1" parent="1">
          <mxGeometry x="460" y="190" width="60" height="30" as="geometry" />
        </mxCell>
      </root>
    </mxGraphModel>
  </diagram>
</mxfile>
